<?xml version="1.0" encoding="utf-8"?>
<!-- Generator: Adobe Illustrator 25.2.0, SVG Export Plug-In . SVG Version: 6.00 Build 0)  -->
<svg version="1.1" xmlns="http://www.w3.org/2000/svg" xmlns:xlink="http://www.w3.org/1999/xlink" x="0px" y="0px"
	 viewBox="0 0 9.54 30.86" style="enable-background:new 0 0 9.54 30.86;" xml:space="preserve">
<style type="text/css">
	.st0{fill:url(#SVGID_1_);}
	.st1{fill:url(#SVGID_2_);}
	.st2{fill:url(#SVGID_3_);}
	.st3{fill:url(#SVGID_4_);}
	.st4{fill:url(#SVGID_5_);}
	.st5{fill:url(#SVGID_6_);}
	.st6{fill:url(#SVGID_7_);}
	.st7{fill:url(#SVGID_8_);}
	.st8{display:none;}
</style>
<g id="Ebene_2">
	<g>
		<path d="M407.91-226.55c-0.22,2.15-0.18,4.38,0.16,6.52c0.35,2.13,1.03,4.24,2.32,5.88c1.28,1.65,3.18,2.7,5.17,3.6
			c1.99,0.91,4.15,1.72,6.09,3.14c1.95,1.39,3.46,3.52,4.16,5.82c0.37,1.14,0.58,2.32,0.71,3.48c0.12,1.19,0.11,2.4-0.04,3.59
			c-0.29,2.39-1.14,4.68-2.32,6.72c-1.19,2.05-2.69,3.88-4.35,5.51c-3.34,3.26-7.25,5.79-11.36,7.82
			c-4.12,2.02-8.48,3.56-12.99,4.56c-4.51,0.96-9.19,1.5-14.03,0.73c-1.21-0.2-2.42-0.5-3.63-0.96c-1.2-0.44-2.41-1.12-3.46-1.91
			c-1.06-0.82-2.13-1.85-2.83-3.28c-0.73-1.4-0.94-3.14-0.7-4.63c0.23-1.51,0.79-2.81,1.45-3.96c0.66-1.15,1.42-2.17,2.22-3.11
			c1.61-1.87,3.39-3.46,5.23-4.93c3.69-2.92,7.64-5.34,11.76-7.48c2.06-1.06,4.18-2.04,6.38-2.91c2.23-0.85,4.42-1.66,7.2-2.07
			c0.72-0.09,1.46-0.17,2.48-0.06c0.25,0.03,0.5,0.07,0.76,0.12c0.3,0.07,0.56,0.13,0.87,0.25c0.62,0.23,1.35,0.6,2.01,1.27
			c0.65,0.65,1.13,1.56,1.31,2.31c0.11,0.4,0.14,0.71,0.19,1.07c0.01,0.29,0.03,0.63,0.01,0.88c-0.06,1.07-0.27,1.84-0.47,2.56
			c-0.43,1.38-0.93,2.52-1.43,3.61c-0.5,1.09-1.02,2.13-1.54,3.15c-2.08,4.05-4.15,7.91-6.03,11.85c-1.88,3.92-3.59,7.89-5.03,11.91
			c-2.9,8.03-4.74,16.32-5.1,24.59l-11.25-0.89c1.05-9.53,3.77-18.71,7.5-27.23c1.86-4.27,3.97-8.39,6.21-12.37
			c2.23-3.99,4.64-7.85,6.89-11.6c0.56-0.94,1.1-1.86,1.59-2.77c0.49-0.9,0.94-1.8,1.22-2.53c0.14-0.35,0.21-0.66,0.23-0.71
			c0.01-0.02,0,0.03,0.02,0.04c0,0.08,0.02,0.11,0.05,0.24c0.06,0.19,0.24,0.61,0.52,0.85c0.27,0.27,0.5,0.36,0.61,0.39
			c0.06,0.01,0.04,0.02,0.07,0.01c-0.02,0-0.05-0.01-0.07-0.02c-0.09-0.03-0.46-0.05-0.86-0.01c-1.66,0.13-3.75,0.7-5.71,1.35
			c-1.99,0.66-3.98,1.45-5.93,2.33c-3.9,1.75-7.71,3.82-11.16,6.26c-1.72,1.22-3.35,2.54-4.73,3.98c-1.36,1.42-2.51,3.05-2.8,4.46
			c-0.15,0.7-0.11,1.29,0.15,1.9c0.23,0.61,0.76,1.23,1.43,1.8c1.34,1.17,3.14,1.84,5.13,2.26c3.98,0.79,8.35,0.5,12.56-0.26
			c4.23-0.78,8.41-2.09,12.36-3.86c3.94-1.78,7.69-4.03,10.85-6.91c3.13-2.86,5.68-6.48,6.32-10.59c0.16-1.02,0.21-2.05,0.14-3.09
			c-0.08-1.05-0.24-2.09-0.51-3.08c-0.54-1.99-1.67-3.73-3.31-5c-1.64-1.29-3.66-2.16-5.68-3.16c-2.01-1-4.13-2.23-5.54-4.19
			c-1.43-1.93-2.1-4.23-2.42-6.49c-0.31-2.28-0.31-4.54-0.03-6.83L407.91-226.55z"/>
	</g>
	<linearGradient id="SVGID_1_" gradientUnits="userSpaceOnUse" x1="36.7426" y1="-19.7562" x2="37.0151" y2="13.4213">
		<stop  offset="0" style="stop-color:#FFFFFF"/>
		<stop  offset="1" style="stop-color:#000000"/>
	</linearGradient>
	<path class="st0" d="M39.16,9.95c0.8-2.21,1.8-4.37,2.93-6.52l1.78-3.3c0.3-0.58,0.61-1.17,0.91-1.85c0.15-0.34,0.3-0.72,0.43-1.18
		c0.11-0.46,0.29-1.05,0.1-2.02c-0.11-0.49-0.38-1.03-0.77-1.42c-0.38-0.38-0.78-0.6-1.12-0.73c-0.17-0.07-0.31-0.11-0.47-0.15
		c-0.14-0.03-0.28-0.06-0.41-0.08c-0.24-0.04-0.5-0.06-0.77-0.07c-0.98,0-1.68,0.16-2.38,0.33c-1.38,0.35-2.61,0.82-3.83,1.33
		c-2.42,1.04-4.7,2.26-6.89,3.67c-2.18,1.43-4.29,2.99-6.11,5.08c-0.88,1.06-1.75,2.26-2.12,3.91c-0.17,0.82-0.14,1.77,0.19,2.61
		c0.32,0.85,0.88,1.51,1.46,2.03c0.29,0.26,0.6,0.48,0.9,0.68c0.31,0.2,0.65,0.39,0.98,0.54c0.67,0.31,1.35,0.52,2.03,0.68
		c1.36,0.31,2.7,0.38,4.02,0.34c0.44-0.01,0.87-0.04,1.3-0.07l0.8-2.34c-0.71,0.06-1.42,0.09-2.12,0.09
		c-1.18-0.01-2.35-0.12-3.42-0.41c-1.09-0.28-2.02-0.73-2.72-1.43c-0.33-0.33-0.57-0.68-0.67-1.02c-0.1-0.34-0.1-0.68,0.01-1.08
		c0.22-0.81,0.85-1.71,1.62-2.51c1.56-1.61,3.58-2.97,5.65-4.16c2.08-1.19,4.29-2.21,6.52-3.03c1.11-0.4,2.25-0.75,3.31-0.96
		c0.41,0.02-0.39,0.93-0.39,0.93l-2.04,3.16c-1.38,2.17-2.68,4.47-3.78,6.89c-2.22,4.83-3.58,10.2-3.76,15.66h-3.77l7.12,11.33
		l6.96-11.33h-3.61C36.8,18.96,37.55,14.36,39.16,9.95z M52.59-6.76c-0.61-1.23-1.66-2.22-2.8-2.86c-1.14-0.66-2.33-1.09-3.42-1.63
		c-1.09-0.53-2.08-1.21-2.73-2.19c-0.64-0.98-0.99-2.17-1.17-3.37c-0.17-1.2-0.56-2.51-0.44-3.71l-0.22-0.03
		c-0.16,1.28-0.17,2.55-0.01,3.83c0.16,1.27,0.49,2.55,1.2,3.69c0.35,0.56,0.8,1.08,1.32,1.5c0.51,0.42,1.07,0.77,1.64,1.07
		c1.13,0.61,2.29,1.07,3.3,1.71c1.01,0.62,1.82,1.46,2.3,2.5c0.48,1.02,0.66,2.23,0.67,3.39c0,2.33-1.1,4.54-2.67,6.31
		c-1.58,1.78-3.58,3.2-5.7,4.36c-1.23,0.66-2.98,1.61-4.29,2.1l-0.71,2.47c1.78-0.66,4.25-2.04,5.89-3c2.22-1.31,4.31-2.9,5.99-4.93
		c0.83-1.02,1.55-2.15,2.05-3.39c0.5-1.24,0.77-2.59,0.72-3.93C53.45-4.21,53.21-5.53,52.59-6.76z"/>
	<g>
		<path d="M356.76-141.5c0.29,1.52,0.41,3.04,0.27,4.59c-0.16,1.51-0.6,3.21-1.95,4.34c-2.26,1.9-4.47,3.86-6.57,5.93
			c-2.1,2.06-4.11,4.22-5.86,6.54c-0.87,1.16-1.67,2.37-2.32,3.63c-0.63,1.25-1.12,2.59-1.15,3.86c-0.03,1.27,0.51,2.36,1.52,3.13
			c1.02,0.78,2.3,1.21,3.73,1.57c2.86,0.77,5.73,1.5,8.6,2.21c5.75,1.41,11.52,2.73,17.32,3.86c2.9,0.56,5.8,1.07,8.71,1.49
			c2.88,0.39,5.86,0.77,8.55,0.65c0.63-0.03,1.34-0.16,1.54-0.28c0.04-0.02,0-0.03-0.1,0.09c-0.11,0.1-0.22,0.41-0.21,0.57
			c0.04,0.32,0.03,0.12-0.12-0.03c-0.48-0.62-1.75-1.25-3-1.66c-2.58-0.84-5.45-1.25-8.31-1.46c-5.74-0.41-11.58-0.08-17.27,0.85
			c-5.67,0.95-11.28,2.52-16.22,5.11c-2.46,1.29-4.72,2.87-6.56,4.76c-0.91,0.94-1.74,1.97-2.36,3.03
			c-0.31,0.51-0.54,1.03-0.62,1.37c-0.04,0.16-0.03,0.26-0.03,0.21c0.01-0.04-0.04-0.29-0.17-0.45c-0.13-0.17-0.21-0.2-0.16-0.18
			c0.06,0.02,0.21,0.06,0.42,0.08c0.42,0.05,1,0.04,1.6-0.02c1.22-0.12,2.55-0.42,3.87-0.79c2.65-0.75,5.3-1.81,7.87-3
			c5.13-2.42,10.07-5.43,14.25-9.04c2.07-1.8,3.94-3.79,5.25-5.88c0.64-1.04,1.13-2.1,1.38-3.09c0.13-0.5,0.19-0.97,0.2-1.42
			c0-0.11,0-0.23-0.01-0.33l-0.01-0.17l-0.02-0.25l-0.09-0.99c-0.28-2.59-0.92-5.15-2.03-6.87c-0.54-0.84-1.18-1.45-1.61-1.6
			c-0.45-0.15-0.49-0.12-0.78,0.05c-0.29,0.16-0.78,0.68-1.14,1.51c-0.37,0.8-0.61,1.85-0.71,2.97l-0.05,0.89l-0.03,1.08
			c-0.02,0.72-0.04,1.43-0.04,2.17c-0.02,1.45-0.02,2.92-0.02,4.38c0.02,5.87,0.15,11.78,0.4,17.69c0.21,5.91,0.52,11.83,0.91,17.72
			l-10.6,0.25c0.28-11.94,0.43-23.81,0.8-35.8c0.05-1.5,0.12-3,0.2-4.52c0.03-0.75,0.08-1.52,0.13-2.28l0.08-1.15
			c0.03-0.39,0.09-0.89,0.13-1.33c0.23-1.82,0.68-3.7,1.63-5.57c0.93-1.83,2.37-3.76,4.74-4.96c1.16-0.59,2.55-0.95,3.94-0.92
			c1.39,0.02,2.71,0.41,3.83,0.98c2.26,1.17,3.61,2.92,4.62,4.59c1.94,3.41,2.48,6.84,2.75,10.12l0.06,1.23l0.02,0.31l0,0.39
			c0.01,0.26-0.01,0.52-0.02,0.78c-0.07,1.03-0.25,2.03-0.53,2.96c-0.55,1.87-1.42,3.49-2.38,4.94c-1.96,2.89-4.32,5.15-6.78,7.16
			c-4.96,3.98-10.37,7-16.05,9.45c-2.85,1.21-5.77,2.26-8.86,3.03c-1.55,0.38-3.14,0.69-4.88,0.8c-0.88,0.05-1.79,0.06-2.84-0.11
			c-0.53-0.09-1.09-0.22-1.72-0.5c-0.62-0.28-1.35-0.72-1.93-1.48c-0.59-0.75-0.88-1.73-0.91-2.51c-0.04-0.79,0.1-1.43,0.26-1.98
			c0.34-1.09,0.8-1.9,1.27-2.64c0.94-1.46,2.02-2.72,3.21-3.88c2.38-2.3,5.12-4.05,7.95-5.44c5.68-2.76,11.72-4.22,17.75-5.05
			c6.05-0.8,12.15-0.97,18.23-0.35c3.04,0.33,6.09,0.82,9.13,1.91c0.76,0.28,1.52,0.61,2.28,1.05c0.75,0.44,1.55,0.98,2.21,1.87
			c0.28,0.44,0.69,0.9,0.75,1.98c0.03,0.53-0.22,1.21-0.58,1.59c-0.35,0.4-0.7,0.6-0.99,0.74c-1.16,0.49-1.97,0.47-2.81,0.53
			c-3.24,0.04-6.17-0.47-9.15-0.96c-2.96-0.52-5.88-1.13-8.79-1.79c-5.82-1.31-11.59-2.77-17.33-4.34
			c-2.87-0.78-5.73-1.59-8.58-2.44c-1.42-0.4-3.02-0.94-4.35-2c-0.66-0.54-1.26-1.23-1.63-2.05c-0.38-0.82-0.52-1.72-0.49-2.57
			c0.08-1.71,0.71-3.21,1.43-4.58c0.74-1.37,1.62-2.62,2.55-3.81c1.88-2.38,3.98-4.52,6.16-6.57c2.18-2.04,4.45-3.98,6.78-5.84
			c1-0.79,1.45-2.18,1.6-3.57c0.16-1.4,0.06-2.88-0.18-4.27L356.76-141.5z"/>
	</g>
	<g>
		
			<linearGradient id="SVGID_2_" gradientUnits="userSpaceOnUse" x1="98.9475" y1="-8.2336" x2="103.1046" y2="-8.2336" gradientTransform="matrix(0.9999 -0.0134 0.0134 0.9999 0.0222 1.2872)">
			<stop  offset="0" style="stop-color:#FFFFFF"/>
			<stop  offset="1" style="stop-color:#000000"/>
		</linearGradient>
		<path class="st1" d="M102.99-9.72c-0.88-0.03-2.75,0.12-4.12,0.24l-0.01,2.21l1.8,0.39C100.67-6.88,102.52-8.86,102.99-9.72z"/>
		
			<linearGradient id="SVGID_3_" gradientUnits="userSpaceOnUse" x1="94.1628" y1="-15.2461" x2="93.3872" y2="5.9067" gradientTransform="matrix(0.9999 -0.0134 0.0134 0.9999 0.0222 1.2872)">
			<stop  offset="0" style="stop-color:#FFFFFF"/>
			<stop  offset="1" style="stop-color:#000000"/>
		</linearGradient>
		<path class="st2" d="M89.57,1.53c1.47-0.33,8.15-5.42,8.15-5.42l-7.96-1.87C89.69-3.27,89.61-0.97,89.57,1.53z"/>
		
			<linearGradient id="SVGID_4_" gradientUnits="userSpaceOnUse" x1="99.2298" y1="-34.7398" x2="84.0225" y2="10.7481" gradientTransform="matrix(0.9999 -0.0134 0.0134 0.9999 0.0222 1.2872)">
			<stop  offset="0" style="stop-color:#FFFFFF"/>
			<stop  offset="0.2295" style="stop-color:#D4D4D4"/>
			<stop  offset="0.7233" style="stop-color:#696969"/>
			<stop  offset="1" style="stop-color:#000000"/>
		</linearGradient>
		<path class="st3" d="M111.58-10.83c0.26-0.95,0.45-1.95,0.49-2.99c0.01-0.26,0.02-0.52,0.01-0.78c0-0.28-0.02-0.43-0.02-0.65
			l-0.06-1.23c-0.29-3.28-0.84-6.71-2.82-10.12c-1.01-1.67-2.42-3.41-4.7-4.55c-1.14-0.55-2.48-0.9-3.87-0.89
			c-1.38,0-2.77,0.38-3.91,1c-1.15,0.61-2.09,1.42-2.86,2.28c-0.73,0.87-1.34,1.79-1.78,2.72c-0.93,1.86-1.35,3.73-1.59,5.55
			c-0.04,0.43-0.11,0.95-0.13,1.31l-0.08,1.14c-0.05,0.76-0.1,1.53-0.14,2.28c-0.09,1.51-0.15,3.01-0.21,4.51
			c-0.02,0.69-0.05,1.38-0.07,2.06l8.58,1.93c-0.01-1.28-0.02-2.56-0.02-3.83l0.03-4.37c0-0.73,0.02-1.45,0.05-2.16l0.03-1.07
			c0.01-0.38,0.04-0.59,0.05-0.9c0.1-1.12,0.32-2.18,0.7-2.99c0.17-0.42,0.39-0.74,0.59-1.02c0.21-0.25,0.41-0.42,0.56-0.52
			c0.31-0.17,0.34-0.19,0.77-0.07c0.41,0.15,1.05,0.71,1.59,1.55c1.11,1.68,1.75,4.24,2.04,6.81c0.04,0.62,0.14,1.44,0.13,1.77
			c0,0.44-0.07,0.91-0.18,1.39c-0.24,0.97-0.71,2.02-1.36,3.04c-1.29,2.06-3.17,4.03-5.25,5.81c-4.19,3.57-9.14,6.53-14.28,8.9
			C81.3,6.26,78.65,7.3,76,8.05c-1.32,0.37-2.65,0.68-3.9,0.83c-0.62,0.08-1.22,0.11-1.73,0.08c-0.5-0.01-0.4-0.07-0.14-0.55
			c0.52-1,1.34-2.09,2.19-3.02c1.75-1.92,3.99-3.5,6.4-4.82c3.18-1.71,6.66-2.98,10.26-3.92l0.03-2.42l-3.86-1.37
			C82.3-6.3,79.37-5.22,76.54-3.8c-2.81,1.43-5.55,3.22-7.88,5.62c-1.16,1.22-2.2,2.47-3.12,4.07c-0.44,0.82-0.9,1.73-1.07,3.1
			c-0.07,0.68-0.02,1.56,0.36,2.44c0.38,0.88,1.07,1.59,1.73,2.01c1.33,0.82,2.42,0.95,3.39,1.05c0.97,0.08,1.86,0.05,2.71-0.02
			c1.7-0.15,3.27-0.47,4.81-0.84c3.07-0.77,5.99-1.8,8.84-2.99c5.68-2.42,11.11-5.38,16.08-9.34c2.47-2,4.85-4.25,6.82-7.14
			C110.18-7.3,111.04-8.94,111.58-10.83z"/>
		
			<linearGradient id="SVGID_5_" gradientUnits="userSpaceOnUse" x1="87.8557" y1="-44.2412" x2="86.3897" y2="14.0217" gradientTransform="matrix(0.9999 -0.0134 0.0134 0.9999 0.0222 1.2872)">
			<stop  offset="0" style="stop-color:#FFFFFF"/>
			<stop  offset="0.359" style="stop-color:#BABABB"/>
			<stop  offset="1" style="stop-color:#000000"/>
		</linearGradient>
		<path class="st4" d="M74.99-11.67c0.61,0.64,1.32,1.13,2.04,1.5c0.73,0.38,1.48,0.66,2.24,0.89l2.14,0.64
			c1.35,0.4,2.7,0.79,4.06,1.18c1.5,0.43,3,0.85,4.51,1.26c2.7,0.74,5.3,1.43,8.01,2.12c0,0,1.98-1.66,2.32-2.18
			c0,0-0.9-0.2-1.43-0.31c-2.77-0.61-5.54-1.26-8.3-1.93c-0.33-0.08-0.67-0.16-1-0.24c-2.53-0.62-5.06-1.26-7.59-1.93l-2.14-0.57
			c-0.67-0.18-1.31-0.41-1.9-0.7c-1.19-0.57-2.13-1.43-2.45-2.54c-0.34-1.12-0.09-2.48,0.4-3.75c0.49-1.29,1.22-2.53,2.03-3.72
			c1.63-2.38,3.59-4.57,5.64-6.67c2.06-2.09,4.23-4.08,6.47-6c0.56-0.5,1.11-0.89,1.71-1.51c0.56-0.6,0.97-1.32,1.23-2.06
			c0.51-1.5,0.55-3.09,0.15-4.54c-0.12,1.49-0.41,2.93-1.02,4.18c-0.3,0.62-0.69,1.18-1.16,1.65c-0.46,0.42-1.11,0.91-1.67,1.37
			c-2.31,1.88-4.56,3.83-6.71,5.9c-2.14,2.08-4.21,4.26-6,6.72c-0.89,1.24-1.71,2.54-2.32,4.01c-0.59,1.45-1.04,3.15-0.57,4.92
			C73.9-13.12,74.38-12.3,74.99-11.67z"/>
		
			<linearGradient id="SVGID_6_" gradientUnits="userSpaceOnUse" x1="130.3411" y1="-1.1273" x2="109.0588" y2="-5.8636" gradientTransform="matrix(0.9999 -0.0134 0.0134 0.9999 0.0222 1.2872)">
			<stop  offset="0" style="stop-color:#FFFFFF"/>
			<stop  offset="1" style="stop-color:#000000"/>
		</linearGradient>
		<path class="st5" d="M128.19-3.09c-0.26-0.82-0.58-1.19-0.92-1.61c-0.36-0.44-0.74-0.74-1.13-1.03c-1.53-1.08-3.05-1.61-4.57-2.09
			c-3.04-0.91-6.07-1.35-9.11-1.63c-0.32-0.03-0.93-0.39-0.95-0.08c-0.07,1.29-1.98,3.89-1.98,3.89c0.88,0.02,1.75,0.06,2.62,0.11
			c2.86,0.18,5.73,0.53,8.39,1.25c1.31,0.36,2.62,0.83,3.53,1.45c0.13,0.54-1.85,0.09-3.24,0.01c-1.42-0.09-2.87-0.25-4.31-0.44
			c-2.63-0.35-7.31-1.27-7.89-1.29c-0.3,0.91-2.14,2.53-2.14,2.53c0.26,0.06,0.51,0.11,0.77,0.17c2.91,0.64,5.83,1.24,8.8,1.72
			c1.49,0.24,2.98,0.45,4.51,0.6c1.55,0.12,3.04,0.27,4.9-0.03c0.48-0.11,0.99-0.19,1.69-0.66c0.34-0.23,0.76-0.65,0.98-1.26
			C128.38-2.09,128.31-2.69,128.19-3.09z"/>
		
			<linearGradient id="SVGID_7_" gradientUnits="userSpaceOnUse" x1="94.2376" y1="-16.4398" x2="94.2296" y2="22.5885" gradientTransform="matrix(0.9999 -0.0134 0.0134 0.9999 0.0222 1.2872)">
			<stop  offset="0" style="stop-color:#FFFFFF"/>
			<stop  offset="1" style="stop-color:#000000"/>
		</linearGradient>
		<path class="st6" d="M98.78,6.56c-0.03-0.71-0.08-2.14-0.08-2.14c-5.65,3.77-9.32,5.34-9.32,5.34c-0.11,4.9-0.21,9.79-0.34,14.7
			l-5.79-0.01l12.47,16.23l10.12-16.96l-6.21,0.51C99.27,18.37,98.98,12.46,98.78,6.56z"/>
	</g>
	<linearGradient id="SVGID_8_" gradientUnits="userSpaceOnUse" x1="4.7423" y1="0.3923" x2="4.7718" y2="23.6642">
		<stop  offset="0" style="stop-color:#FFFFFF"/>
		<stop  offset="1" style="stop-color:#000000"/>
	</linearGradient>
	<polygon class="st7" points="6.86,23.82 4.57,0 2.53,23.82 0,23.82 4.77,30.86 9.54,23.82 	"/>
</g>
<g id="Ebene_1" class="st8">
</g>
</svg>
